<svg id="2f8c6095-58e0-4ef2-8962-8a3cdb8c1639" data-name="Layer 1" xmlns="http://www.w3.org/2000/svg" viewBox="0 0 42.12 42.66"><title>Icons</title><path d="M33.9,3.29a4.94,4.94,0,0,1,4.93,4.93V34.44a4.94,4.94,0,0,1-4.93,4.93H8.22a4.94,4.94,0,0,1-4.93-4.93V8.22A4.94,4.94,0,0,1,8.22,3.29H33.9M33.9,0H8.22A8.24,8.24,0,0,0,0,8.22V34.44a8.24,8.24,0,0,0,8.22,8.22H33.9a8.24,8.24,0,0,0,8.22-8.22V8.22A8.24,8.24,0,0,0,33.9,0h0Z" style="fill:#231f20"/><path d="M8.89,32.35V10.53H16.5V13.1H13V29.78H16.5v2.57H8.89Z" style="fill:#231f20"/><path d="M34,10.53V32.35H26.36V29.78h3.53V13.07H26.36V10.53H34Z" style="fill:#231f20"/></svg>