<svg id="2480a2ab-6575-4f67-a844-745b472d2b12" data-name="Layer 1" xmlns="http://www.w3.org/2000/svg" viewBox="0 0 42.12 42.66"><title>Icons</title><path d="M33.9,3.29a4.94,4.94,0,0,1,4.93,4.93V34.44a4.94,4.94,0,0,1-4.93,4.93H8.22a4.94,4.94,0,0,1-4.93-4.93V8.22A4.94,4.94,0,0,1,8.22,3.29H33.9M33.9,0H8.22A8.24,8.24,0,0,0,0,8.22V34.44a8.24,8.24,0,0,0,8.22,8.22H33.9a8.24,8.24,0,0,0,8.22-8.22V8.22A8.24,8.24,0,0,0,33.9,0h0Z" style="fill:#231f20"/><path d="M10.35,35.14L27.68,7.2h3.91L14.19,35.14H10.35Z" style="fill:#231f20"/><path d="M13.81,23h-3V11.63a10.41,10.41,0,0,1-3.9,2.29V11.18A8.73,8.73,0,0,0,9.46,9.72a5.57,5.57,0,0,0,1.9-2.52h2.45V23Z" style="fill:#231f20"/><path d="M30.14,19.26a4.3,4.3,0,0,1,3.58,1.63q1.54,1.93,1.54,6.41T33.7,33.73a4.3,4.3,0,0,1-3.57,1.61,4.51,4.51,0,0,1-3.71-1.77Q25,31.81,25,27.28t1.55-6.4A4.3,4.3,0,0,1,30.14,19.26Zm0,2.5a1.51,1.51,0,0,0-1,.35,2.34,2.34,0,0,0-.67,1.25,17.24,17.24,0,0,0-.31,3.94,17.11,17.11,0,0,0,.28,3.81,2.67,2.67,0,0,0,.7,1.38,1.54,1.54,0,0,0,1.95,0,2.35,2.35,0,0,0,.67-1.25,17.12,17.12,0,0,0,.31-3.93,17.15,17.15,0,0,0-.28-3.81,2.72,2.72,0,0,0-.7-1.39A1.49,1.49,0,0,0,30.14,21.77Z" style="fill:#231f20"/></svg>