<svg id="888a63f5-6c0e-42da-b730-f177759aac1d" data-name="Layer 1" xmlns="http://www.w3.org/2000/svg" viewBox="0 0 42.12 42.66"><title>Icons</title><path d="M33.9,3.29a4.94,4.94,0,0,1,4.93,4.93V34.44a4.94,4.94,0,0,1-4.93,4.93H8.22a4.94,4.94,0,0,1-4.93-4.93V8.22A4.94,4.94,0,0,1,8.22,3.29H33.9M33.9,0H8.22A8.24,8.24,0,0,0,0,8.22V34.44a8.24,8.24,0,0,0,8.22,8.22H33.9a8.24,8.24,0,0,0,8.22-8.22V8.22A8.24,8.24,0,0,0,33.9,0h0Z" style="fill:#231f20"/><path d="M10.85,23.5V9.12H5.71V6.2H19.46V9.12H14.34V23.5H10.85Z" style="fill:#231f20"/><path d="M10.35,35.14L27.68,7.2h3.91L14.19,35.14H10.35Z" style="fill:#231f20"/><path d="M25.06,36.36V20.25h11V23h-7.8v3.81H35v2.73H28.31v6.85H25.06Z" style="fill:#231f20"/></svg>