<svg id="aeba5411-790c-4feb-93a6-9a7a621650aa" data-name="Layer 1" xmlns="http://www.w3.org/2000/svg" viewBox="0 0 42.12 42.66"><title>Icons</title><path d="M33.9,3.29a4.94,4.94,0,0,1,4.93,4.93V34.44a4.94,4.94,0,0,1-4.93,4.93H8.22a4.94,4.94,0,0,1-4.93-4.93V8.22A4.94,4.94,0,0,1,8.22,3.29H33.9M33.9,0H8.22A8.24,8.24,0,0,0,0,8.22V34.44a8.24,8.24,0,0,0,8.22,8.22H33.9a8.24,8.24,0,0,0,8.22-8.22V8.22A8.24,8.24,0,0,0,33.9,0h0Z" style="fill:#231f20"/><polygon points="7.73 33.05 7.73 10.13 15.54 10.13 19.15 13.13 30.73 13.13 30.73 16.52 11.16 16.25 7.73 33.05" style="fill:#231f20"/><polygon points="36.8 17.7 13.97 17.7 7.67 33.05 30.5 33.05 36.8 17.7" style="fill:#231f20"/></svg>