<svg id="04158d5d-ddfc-4344-a070-57deb878f7dc" data-name="Layer 1" xmlns="http://www.w3.org/2000/svg" viewBox="0 0 42.12 42.66"><title>Icons</title><path d="M33.9,3.29a4.94,4.94,0,0,1,4.93,4.93V34.44a4.94,4.94,0,0,1-4.93,4.93H8.22a4.94,4.94,0,0,1-4.93-4.93V8.22A4.94,4.94,0,0,1,8.22,3.29H33.9M33.9,0H8.22A8.24,8.24,0,0,0,0,8.22V34.44a8.24,8.24,0,0,0,8.22,8.22H33.9a8.24,8.24,0,0,0,8.22-8.22V8.22A8.24,8.24,0,0,0,33.9,0h0Z" style="fill:#231f20"/><path d="M36.92,12.38V14.5A7.59,7.59,0,0,1,34.85,19c-2,2.12-4.14,4.18-6.23,6.26a8.64,8.64,0,0,1-.83.62A8.47,8.47,0,0,0,28.16,21a1,1,0,0,1,.33-1c1.07-1,2.12-2.09,3.16-3.15a4.56,4.56,0,1,0-6.41-6.47c-1.67,1.64-3.29,3.34-5,5-1.5,1.43-2.23,3.08-1.57,5.12a4.54,4.54,0,0,0,4.22,3.19c-0.24,1.5-1.44,2.28-2.37,3.23-0.26.27-.59-0.05-0.86-0.17a8.28,8.28,0,0,1-3.14-12.87,58.71,58.71,0,0,1,6.91-6.9,7.73,7.73,0,0,1,8.37-1.22A8,8,0,0,1,36.92,12.38Z" style="fill:#231f20"/><path d="M14.69,36.73H12.57a8,8,0,0,1-6.62-5A7.71,7.71,0,0,1,7,23.42a81.8,81.8,0,0,1,6.92-7,2.79,2.79,0,0,1,.43-0.26,9.91,9.91,0,0,0-.22,5,0.81,0.81,0,0,1-.41.79C12.65,23,11.56,24,10.51,25.13a4.55,4.55,0,1,0,6.41,6.46c1.85-1.81,3.68-3.65,5.5-5.5a4.37,4.37,0,0,0,1.14-4.71,4.3,4.3,0,0,0-3.65-3.05c-0.7-.1-0.56-0.37-0.38-0.78A9,9,0,0,1,21.67,15c0.3-.31.6,0,0.86,0.11a8.29,8.29,0,0,1,3.18,12.91,76.54,76.54,0,0,1-6.83,6.85A7.29,7.29,0,0,1,14.69,36.73Z" style="fill:#231f20"/></svg>