<svg id="c9e16770-f3a3-4e43-ad76-8dae08c2d4db" data-name="Layer 1" xmlns="http://www.w3.org/2000/svg" viewBox="0 0 42.12 42.66"><title>Icons</title><path d="M33.9,3.29a4.94,4.94,0,0,1,4.93,4.93V34.44a4.94,4.94,0,0,1-4.93,4.93H8.22a4.94,4.94,0,0,1-4.93-4.93V8.22A4.94,4.94,0,0,1,8.22,3.29H33.9M33.9,0H8.22A8.24,8.24,0,0,0,0,8.22V34.44a8.24,8.24,0,0,0,8.22,8.22H33.9a8.24,8.24,0,0,0,8.22-8.22V8.22A8.24,8.24,0,0,0,33.9,0h0Z" style="fill:#231f20"/><g id="d995179c-df98-4e59-97de-8918256ab47e" data-name="x16HBu.tif"><path d="M21.13,7.1a23.26,23.26,0,0,1,8.35,1.22,6.69,6.69,0,0,1,2.61,1.53,1.76,1.76,0,0,1,0,2.73,4.4,4.4,0,0,1-1.24.91,17.63,17.63,0,0,1-3.06,1.14,27.59,27.59,0,0,1-14.73-.42,6.66,6.66,0,0,1-2.83-1.6,1.79,1.79,0,0,1,0-2.77,6.45,6.45,0,0,1,2.35-1.42,21.6,21.6,0,0,1,6.6-1.31C19.81,7.06,20.47,7.1,21.13,7.1Z" style="fill:#231f20"/><path d="M32.71,28.33c0,1.21,0,2.32,0,3.42a2.08,2.08,0,0,1-.92,1.47,8.49,8.49,0,0,1-3,1.47,27.36,27.36,0,0,1-9.93,1,19.76,19.76,0,0,1-6-1.2A12.72,12.72,0,0,1,10.5,33.2a2.12,2.12,0,0,1-.95-2c0-.93,0-1.86,0-2.87l0.83,0.48a17.67,17.67,0,0,0,6.11,1.85,31.06,31.06,0,0,0,11.83-.5A13.61,13.61,0,0,0,32.71,28.33Z" style="fill:#231f20"/><path d="M9.56,14.81c3.4,2,7.09,2.54,10.85,2.64a26.09,26.09,0,0,0,8.75-1.07,33.55,33.55,0,0,0,3.29-1.44l0.24-.12c0,1.18,0,2.31,0,3.44a2,2,0,0,1-.89,1.38,8.63,8.63,0,0,1-3.09,1.52,27.65,27.65,0,0,1-10.21.9,19.17,19.17,0,0,1-6.15-1.37,10.19,10.19,0,0,1-1.85-1.08,2.15,2.15,0,0,1-.93-1.94C9.59,16.74,9.56,15.81,9.56,14.81Z" style="fill:#231f20"/><path d="M9.56,21.63c4.62,2.57,9.56,2.84,14.59,2.47a20.13,20.13,0,0,0,7.12-1.72c0.48-.22.93-0.5,1.43-0.77,0,1.17,0,2.31,0,3.44a2.09,2.09,0,0,1-1,1.47A9.65,9.65,0,0,1,28,28.13a28.18,28.18,0,0,1-14.42-.2,8.62,8.62,0,0,1-3-1.43,2.38,2.38,0,0,1-1-2.13C9.6,23.47,9.56,22.56,9.56,21.63Z" style="fill:#231f20"/></g></svg>