<svg id="4452e2a4-5064-439e-ba3f-d81fd799ce96" data-name="Layer 1" xmlns="http://www.w3.org/2000/svg" viewBox="0 0 42.12 42.66"><title>Icons</title><path d="M33.9,3.29a4.94,4.94,0,0,1,4.93,4.93V34.44a4.94,4.94,0,0,1-4.93,4.93H8.22a4.94,4.94,0,0,1-4.93-4.93V8.22A4.94,4.94,0,0,1,8.22,3.29H33.9M33.9,0H8.22A8.24,8.24,0,0,0,0,8.22V34.44a8.24,8.24,0,0,0,8.22,8.22H33.9a8.24,8.24,0,0,0,8.22-8.22V8.22A8.24,8.24,0,0,0,33.9,0h0Z" style="fill:#231f20"/><path d="M21.31,8.6a13,13,0,1,1-13,13,13,13,0,0,1,13-13m0-2.33A15.31,15.31,0,1,0,36.62,21.58,15.31,15.31,0,0,0,21.31,6.27h0Z" style="fill:#231f20"/><path d="M21.31,12.9a0.58,0.58,0,0,1-.58-0.58V9.69a0.58,0.58,0,1,1,1.17,0v2.63A0.58,0.58,0,0,1,21.31,12.9Z" style="fill:#231f20"/><path d="M21.31,34.12a0.58,0.58,0,0,1-.58-0.58V30.92a0.58,0.58,0,0,1,1.17,0v2.63A0.58,0.58,0,0,1,21.31,34.12Z" style="fill:#231f20"/><path d="M12.6,21.87a0.58,0.58,0,0,1-.58.58H9.39a0.58,0.58,0,0,1,0-1.17H12A0.58,0.58,0,0,1,12.6,21.87Z" style="fill:#231f20"/><path d="M33.82,21.87a0.58,0.58,0,0,1-.58.58H30.61a0.58,0.58,0,1,1,0-1.17h2.63A0.58,0.58,0,0,1,33.82,21.87Z" style="fill:#231f20"/><circle cx="21.31" cy="21.58" r="1.17" style="fill:#231f20"/><path d="M21.31,22.17A0.58,0.58,0,0,1,21.15,21l7.37-2a0.58,0.58,0,1,1,.31,1.12l-7.37,2Z" style="fill:#231f20"/><path d="M31,27.2a0.58,0.58,0,0,1-.27-0.07l-9.7-5a0.58,0.58,0,0,1,.54-1l9.7,5A0.58,0.58,0,0,1,31,27.2Z" style="fill:#231f20"/></svg>