<svg id="23b791bb-841b-4ad0-83fa-b95bd0937d20" data-name="Layer 1" xmlns="http://www.w3.org/2000/svg" viewBox="0 0 42.12 42.66"><title>Icons</title><path d="M33.9,3.34a4.94,4.94,0,0,1,4.93,4.93V34.49a4.94,4.94,0,0,1-4.93,4.93H8.22a4.94,4.94,0,0,1-4.93-4.93V8.27A4.94,4.94,0,0,1,8.22,3.34H33.9m0-3.29H8.22A8.24,8.24,0,0,0,0,8.27V34.49a8.24,8.24,0,0,0,8.22,8.22H33.9a8.24,8.24,0,0,0,8.22-8.22V8.27A8.24,8.24,0,0,0,33.9.05h0Z" style="fill:#231f20"/><path d="M25.51,7.13H13.94c-2.53,0-5.28,1.51-5.28,4V31.79c0,2.53,2.75,4.35,5.28,4.35H29.31a4.19,4.19,0,0,0,4.35-4.35v-17a5.55,5.55,0,0,0-.8-2.65l-4.23-4.4S28,7.13,25.51,7.13Zm6.15,24.65a2.32,2.32,0,0,1-2.35,2.35H13.94c-1.32,0-3.28-1-3.28-2.35V11.18c0-1.32,2-2,3.28-2h9.72v2.58s0.86,3.63,4.47,3.83c1.81,0.1,2.85.1,3.29,0.07l0.24,0.08V31.79Z" style="fill:#231f20"/><path d="M22.42,17.92h0l-6.86-.06a1.4,1.4,0,0,1,0-2.8h0l6.86,0.06A1.4,1.4,0,0,1,22.42,17.92Z" style="fill:#231f20"/><path d="M27.82,23.9h0l-12.26-.06a1.4,1.4,0,0,1,0-2.8h0L27.83,21.1A1.4,1.4,0,0,1,27.82,23.9Z" style="fill:#231f20"/><path d="M27.82,29.88h0l-12.26-.06a1.4,1.4,0,0,1,0-2.8h0l12.26,0.06A1.4,1.4,0,0,1,27.82,29.88Z" style="fill:#231f20"/></svg>