<svg id="a82e9493-2805-4487-b63d-f56c58a20ec1" data-name="Layer 1" xmlns="http://www.w3.org/2000/svg" viewBox="0 0 42.12 42.66"><title>Icons</title><path d="M33.9,3.29m0,0a4.94,4.94,0,0,1,4.93,4.93V34.44a4.94,4.94,0,0,1-4.93,4.93H8.22a4.94,4.94,0,0,1-4.93-4.93V8.22A4.94,4.94,0,0,1,8.22,3.29M33.9,0H8.22A8.24,8.24,0,0,0,0,8.22V34.44a8.24,8.24,0,0,0,8.22,8.22H33.9a8.24,8.24,0,0,0,8.22-8.22V8.22A8.24,8.24,0,0,0,33.9,0h0Z" style="fill:#231f20"/><path d="M8.29,33.22V28.8h5v4.43h-5Z" style="fill:#231f20"/><path d="M18.59,27.47H16.16V24h3.22l1.07-4.65H16.16V15.88h5.09l1.41-6.14h4l-1.41,6.14h4l1.38-6.14h4.15L33.3,15.88h2.47v3.48H32.5L31.42,24h4.34v3.47H30.62l-1.41,6.14h-4l1.38-6.14h-4l-1.41,6.14h-4Zm5.88-8.11L23.42,24h4l1-4.65h-4Z" style="fill:#231f20"/></svg>