<svg id="27ae7a22-1696-4b3b-a841-573a51cac645" data-name="Layer 1" xmlns="http://www.w3.org/2000/svg" viewBox="0 0 42.12 42.66"><title>Icons</title><path d="M33.9,3.29a4.94,4.94,0,0,1,4.93,4.93V34.44a4.94,4.94,0,0,1-4.93,4.93H8.22a4.94,4.94,0,0,1-4.93-4.93V8.22A4.94,4.94,0,0,1,8.22,3.29H33.9M33.9,0H8.22A8.24,8.24,0,0,0,0,8.22V34.44a8.24,8.24,0,0,0,8.22,8.22H33.9a8.24,8.24,0,0,0,8.22-8.22V8.22A8.24,8.24,0,0,0,33.9,0h0Z" style="fill:#231f20"/><path d="M10.49,14.24V10.42h4v3.82h-4Zm0,17.7V16.35h4V31.94h-4Z" style="fill:#231f20"/><path d="M32.45,31.94H28.74V29.65a6.07,6.07,0,0,1-2.18,2,5.47,5.47,0,0,1-2.54.65,5.69,5.69,0,0,1-4.46-2.16,9,9,0,0,1-1.86-6,8.88,8.88,0,0,1,1.81-6A5.81,5.81,0,0,1,24.07,16a5.6,5.6,0,0,1,4.38,2.17V10.42h4V31.94ZM21.78,23.81a7.32,7.32,0,0,0,.67,3.61A3,3,0,0,0,25.15,29a2.91,2.91,0,0,0,2.35-1.21,5.72,5.72,0,0,0,1-3.62,6.26,6.26,0,0,0-.94-3.87,2.94,2.94,0,0,0-2.41-1.18,3,3,0,0,0-2.38,1.17A5.39,5.39,0,0,0,21.78,23.81Z" style="fill:#231f20"/></svg>