<svg id="16d47efe-5c69-4dc6-a2d2-f489a3ee6566" data-name="Layer 1" xmlns="http://www.w3.org/2000/svg" viewBox="0 0 42.12 42.66"><title>Icons</title><path d="M33.9,3.29a4.94,4.94,0,0,1,4.93,4.93V34.44a4.94,4.94,0,0,1-4.93,4.93H8.22a4.94,4.94,0,0,1-4.93-4.93V8.22A4.94,4.94,0,0,1,8.22,3.29H33.9M33.9,0H8.22A8.24,8.24,0,0,0,0,8.22V34.44a8.24,8.24,0,0,0,8.22,8.22H33.9a8.24,8.24,0,0,0,8.22-8.22V8.22A8.24,8.24,0,0,0,33.9,0h0Z" style="fill:#231f20"/><path d="M12.56,27.47H9.82V24h3.63l1.21-4.65H9.82V15.88h5.74l1.59-6.14h4.51l-1.59,6.14h4.45l1.55-6.14h4.67l-1.61,6.14h2.78v3.48H28.24L27,24h4.9v3.47h-5.8l-1.59,6.14H20l1.55-6.14H17.12l-1.59,6.14H11Zm6.63-8.11L18,24h4.47l1.17-4.65H19.19Z" style="fill:#231f20"/></svg>