<svg id="8cc6bc3b-d2ac-4c22-9ccc-bf38926f4e0b" data-name="Layer 1" xmlns="http://www.w3.org/2000/svg" viewBox="0 0 42.12 42.66"><title>Icons</title><path d="M33.9,3.29a4.94,4.94,0,0,1,4.93,4.93V34.44a4.94,4.94,0,0,1-4.93,4.93H8.22a4.94,4.94,0,0,1-4.93-4.93V8.22A4.94,4.94,0,0,1,8.22,3.29H33.9M33.9,0H8.22A8.24,8.24,0,0,0,0,8.22V34.44a8.24,8.24,0,0,0,8.22,8.22H33.9a8.24,8.24,0,0,0,8.22-8.22V8.22A8.24,8.24,0,0,0,33.9,0h0Z" style="fill:#231f20"/><path d="M5.82,22.79V20a5.84,5.84,0,0,0,1.68-.26,2.3,2.3,0,0,0,1-.7A2.76,2.76,0,0,0,9,17.81a10.4,10.4,0,0,0,.12-1.94,12.12,12.12,0,0,1,.28-3.14,2.76,2.76,0,0,1,1-1.43,5.57,5.57,0,0,1,2.09-.85,14.78,14.78,0,0,1,2.94-.21h0.81V13a9.8,9.8,0,0,0-2.18.15,1.36,1.36,0,0,0-.71.44,1.7,1.7,0,0,0-.23,1q0,0.73-.14,2.77a5.5,5.5,0,0,1-.4,1.86,3.62,3.62,0,0,1-.82,1.18,6.34,6.34,0,0,1-1.52,1,5.29,5.29,0,0,1,1.48.92,3.51,3.51,0,0,1,.88,1.28,6.81,6.81,0,0,1,.4,2q0.11,1.93.11,2.46a1.74,1.74,0,0,0,.24,1.07,1.51,1.51,0,0,0,.74.46,9,9,0,0,0,2.15.16v2.79H15.46a15.22,15.22,0,0,1-3.16-.25,4.73,4.73,0,0,1-1.86-.83,2.81,2.81,0,0,1-1-1.43,10,10,0,0,1-.26-2.69,9.68,9.68,0,0,0-.24-2.78,2.42,2.42,0,0,0-1-1.33A4.63,4.63,0,0,0,5.82,22.79Z" style="fill:#231f20"/><path d="M36.93,22.79a5.85,5.85,0,0,0-1.68.26,2.25,2.25,0,0,0-1,.7A2.94,2.94,0,0,0,33.7,25a10.31,10.31,0,0,0-.12,1.93,12.55,12.55,0,0,1-.27,3.15,2.72,2.72,0,0,1-1,1.43,5.58,5.58,0,0,1-2.11.85,14.75,14.75,0,0,1-2.94.21H26.47V29.77a9,9,0,0,0,2.14-.16,1.48,1.48,0,0,0,.74-0.45,1.67,1.67,0,0,0,.24-1q0-.71.13-2.71a5.49,5.49,0,0,1,.41-1.93A3.78,3.78,0,0,1,31,22.29a5.26,5.26,0,0,1,1.43-.89,6.08,6.08,0,0,1-1.65-1.09,4.05,4.05,0,0,1-1-2,26.47,26.47,0,0,1-.24-3.58,2.44,2.44,0,0,0-.21-1.16,1.23,1.23,0,0,0-.69-0.45A9.51,9.51,0,0,0,26.47,13V10.24h0.81a15.58,15.58,0,0,1,3.16.24,4.55,4.55,0,0,1,1.85.83,2.91,2.91,0,0,1,1,1.44,9.78,9.78,0,0,1,.27,2.69,10.38,10.38,0,0,0,.23,2.78,2.41,2.41,0,0,0,1,1.33,4.67,4.67,0,0,0,2.09.46v2.79Z" style="fill:#231f20"/></svg>