<svg id="d3e74785-9fad-4f8d-91cc-44540277ad3b" data-name="Layer 1" xmlns="http://www.w3.org/2000/svg" viewBox="0 0 42.12 42.66"><title>Icons</title><path d="M33.9,3.29a4.94,4.94,0,0,1,4.93,4.93V34.44a4.94,4.94,0,0,1-4.93,4.93H8.22a4.94,4.94,0,0,1-4.93-4.93V8.22A4.94,4.94,0,0,1,8.22,3.29H33.9M33.9,0H8.22A8.24,8.24,0,0,0,0,8.22V34.44a8.24,8.24,0,0,0,8.22,8.22H33.9a8.24,8.24,0,0,0,8.22-8.22V8.22A8.24,8.24,0,0,0,33.9,0h0Z" style="fill:#231f20"/><path d="M14.56,24.14H7.1V18.81a18.15,18.15,0,0,1,.57-5.11,7.78,7.78,0,0,1,2.11-3.36A10.74,10.74,0,0,1,13.71,8l1.46,3.08A6.26,6.26,0,0,0,12,13.16a6.11,6.11,0,0,0-1,3.53h3.61v7.45Zm12.44,0H19.54V18.81a18.14,18.14,0,0,1,.57-5.12,7.75,7.75,0,0,1,2.12-3.34A10.9,10.9,0,0,1,26.15,8l1.46,3.08a6.27,6.27,0,0,0-3.2,2.07,6.11,6.11,0,0,0-1,3.53H27v7.45Z" style="fill:#231f20"/></svg>