<svg id="610685fb-426f-434a-b6c7-5e5880184aee" data-name="Layer 1" xmlns="http://www.w3.org/2000/svg" viewBox="0 0 1005.224 184.827"><title>MongeExplorerHeaderLogo</title><path d="M236.1,37.063L255.878,133.9,276.79,37.063H291.7v122.1H278.411V80.413L262.849,159.16H249.069L233.183,79.321V159.16H219.89V37.063H236.1Z" style="fill:#231f20"/><path d="M355.085,137.329A22.808,22.808,0,0,1,353.14,147a22.526,22.526,0,0,1-5.268,7.251,22.154,22.154,0,0,1-7.862,4.6,30.354,30.354,0,0,1-19.21,0,22.219,22.219,0,0,1-7.781-4.6A22.477,22.477,0,0,1,307.749,147a22.808,22.808,0,0,1-1.945-9.668V85.716a22.963,22.963,0,0,1,1.945-9.59A21.992,21.992,0,0,1,320.8,64.2a30.354,30.354,0,0,1,19.21,0,21.835,21.835,0,0,1,13.13,11.929,22.963,22.963,0,0,1,1.945,9.59v51.614Zm-35.339-.78q0,4.994,3,7.563a11.406,11.406,0,0,0,7.7,2.573,11.1,11.1,0,0,0,7.618-2.573q2.919-2.573,2.918-7.563V86.494q0-4.988-2.918-7.562a11.091,11.091,0,0,0-7.618-2.574,11.4,11.4,0,0,0-7.7,2.574q-3,2.573-3,7.562v50.055Z" style="fill:#231f20"/><path d="M379.075,63.885l2.27,5.458a26.351,26.351,0,0,1,8.429-4.99,27.284,27.284,0,0,1,9.4-1.715,23.034,23.034,0,0,1,8.023,1.4,17.892,17.892,0,0,1,6.646,4.288,20.26,20.26,0,0,1,4.459,7.252,29.093,29.093,0,0,1,1.621,10.136V159.16H405.5V88.678q0-5.925-2.433-9.123t-7.942-3.2q-6,0-11.51,4.99V159.16H369.187V63.885h9.888Z" style="fill:#231f20"/><path d="M433.867,85.716a22.963,22.963,0,0,1,1.945-9.59A21.986,21.986,0,0,1,448.861,64.2a29.028,29.028,0,0,1,9.646-1.56,25.8,25.8,0,0,1,13.131,3.275l17.993-.937-8.1,12.008a24.982,24.982,0,0,1,1.621,8.733v25.261a22.825,22.825,0,0,1-1.945,9.668,22.555,22.555,0,0,1-5.269,7.251,22.144,22.144,0,0,1-7.862,4.6,29.22,29.22,0,0,1-9.564,1.559,31.969,31.969,0,0,1-5.673-.468,9.331,9.331,0,0,0-3.891,7.485,6.155,6.155,0,0,0,1.946,4.756q1.944,1.8,6.321,1.794h28.369l-5.673,11.851H452.184q-5.349,0-7.618,2.105a6.827,6.827,0,0,0-2.27,5.223,7.237,7.237,0,0,0,2.026,5.225q2.025,2.1,6.08,2.105H473.1l-5.673,11.694H447.645a23.666,23.666,0,0,1-8.754-1.481,17.74,17.74,0,0,1-6.24-4.055,17.311,17.311,0,0,1-3.81-5.925,19.03,19.03,0,0,1-1.3-6.939,18.67,18.67,0,0,1,2.918-10.215,17.76,17.76,0,0,1,9.078-6.939,12.887,12.887,0,0,1-2.27-7.8,12.123,12.123,0,0,1,1.946-6.939,18.848,18.848,0,0,1,5.187-5.068,20.525,20.525,0,0,1-7.7-7.8,23.249,23.249,0,0,1-2.837-11.694V85.716Zm13.617,25.1q0,5.146,3.079,7.8a13.106,13.106,0,0,0,15.805,0q3.161-2.651,3.162-7.8V85.871q0-5.3-3.162-7.875a13.423,13.423,0,0,0-15.805,0q-3.08,2.573-3.079,7.875V110.82Z" style="fill:#231f20"/><path d="M546.53,137.329A22.808,22.808,0,0,1,544.585,147a22.526,22.526,0,0,1-5.268,7.251,22.154,22.154,0,0,1-7.862,4.6,30.354,30.354,0,0,1-19.21,0,22.219,22.219,0,0,1-7.781-4.6A22.477,22.477,0,0,1,499.2,147a22.808,22.808,0,0,1-1.945-9.668V85.716a22.963,22.963,0,0,1,1.945-9.59A21.992,21.992,0,0,1,512.245,64.2a30.354,30.354,0,0,1,19.21,0,21.835,21.835,0,0,1,13.13,11.929,22.963,22.963,0,0,1,1.945,9.59v51.614Zm-35.339-.78q0,4.994,3,7.563a11.406,11.406,0,0,0,7.7,2.573,11.1,11.1,0,0,0,7.618-2.573q2.919-2.573,2.918-7.563V86.494q0-4.988-2.918-7.562a11.091,11.091,0,0,0-7.618-2.574,11.4,11.4,0,0,0-7.7,2.574q-3,2.573-3,7.562v50.055Z" style="fill:#231f20"/><path d="M618.767,37.063V50.942H591.7V89.3h19.129V103.18H591.7v42.1h27.072V159.16H576.781V37.063h41.986Z" style="fill:#231f20"/><path d="M687.015,63.885l-22.209,45.688L688.96,159.16H672.911l-16.7-34.774L640,159.16H625.576l23.181-50.523-21.4-44.753h15.4l14.427,30.095L672.1,63.885h14.914Z" style="fill:#231f20"/><path d="M708.411,63.885l2.431,5.925a27.522,27.522,0,0,1,8.349-5.3,25.452,25.452,0,0,1,9.646-1.871,21.922,21.922,0,0,1,7.781,1.4,17.293,17.293,0,0,1,6.485,4.288,21.876,21.876,0,0,1,4.458,7.252,27.809,27.809,0,0,1,1.7,10.136v51.614a27.644,27.644,0,0,1-1.7,10.213,21.954,21.954,0,0,1-4.458,7.173A17.282,17.282,0,0,1,736.618,159a21.922,21.922,0,0,1-7.781,1.4,25.064,25.064,0,0,1-15.887-5.458v30.875H698.523V63.885h9.888Zm16.373,12.474q-6.487,0-11.834,5.458v59.411q5.351,5.46,11.834,5.458,5.186,0,7.618-3.2t2.433-9.123V88.678q0-5.925-2.433-9.123T724.784,76.359Z" style="fill:#231f20"/><path d="M777.792,32.073V159.16H763.364V35.5Z" style="fill:#231f20"/><path d="M841.175,137.329A22.808,22.808,0,0,1,839.23,147a22.526,22.526,0,0,1-5.268,7.251,22.154,22.154,0,0,1-7.862,4.6,30.354,30.354,0,0,1-19.21,0,22.219,22.219,0,0,1-7.781-4.6A22.477,22.477,0,0,1,793.84,147a22.808,22.808,0,0,1-1.945-9.668V85.716a22.963,22.963,0,0,1,1.945-9.59A21.992,21.992,0,0,1,806.89,64.2a30.354,30.354,0,0,1,19.21,0,21.835,21.835,0,0,1,13.13,11.929,22.963,22.963,0,0,1,1.945,9.59v51.614Zm-35.339-.78q0,4.994,3,7.563a11.406,11.406,0,0,0,7.7,2.573,11.1,11.1,0,0,0,7.618-2.573q2.919-2.573,2.918-7.563V86.494q0-4.988-2.918-7.562a11.091,11.091,0,0,0-7.618-2.574,11.4,11.4,0,0,0-7.7,2.574q-3,2.573-3,7.562v50.055Z" style="fill:#231f20"/><path d="M892.56,79.01a17.875,17.875,0,0,0-9.078-2.652q-8.107,0-13.779,8.109V159.16H855.276V63.885h9.888l2.757,7.953q6.321-9.2,16.7-9.2a21.663,21.663,0,0,1,6.322.935,16,16,0,0,1,5.673,3.118Z" style="fill:#231f20"/><path d="M934.709,116.435q-3.405,2.806-8.025,6t-10.456,6.783v7.641q0,4.992,2.918,7.563A10.86,10.86,0,0,0,926.6,147a11.1,11.1,0,0,0,7.619-2.573q2.917-2.573,2.918-7.563v-6.081l13.13-3.275v9.824A23.7,23.7,0,0,1,948.407,147a21.533,21.533,0,0,1-5.188,7.251,22.394,22.394,0,0,1-7.7,4.6,27.863,27.863,0,0,1-9.4,1.56,27.154,27.154,0,0,1-9.322-1.56,21.681,21.681,0,0,1-7.538-4.6A22.019,22.019,0,0,1,904.151,147a23.664,23.664,0,0,1-1.864-9.668V85.716a23.825,23.825,0,0,1,1.864-9.59,21.843,21.843,0,0,1,5.107-7.33,21.6,21.6,0,0,1,7.619-4.6,27.824,27.824,0,0,1,9.4-1.56,31.849,31.849,0,0,1,8.754,1.248,20.118,20.118,0,0,1,7.781,4.21,22.537,22.537,0,0,1,5.593,7.718A28.566,28.566,0,0,1,950.6,87.742a30.61,30.61,0,0,1-3.81,15.516Q942.974,109.887,934.709,116.435Zm-18.481-.624a75.678,75.678,0,0,0,11.185-8.108,29.894,29.894,0,0,0,7.133-8.888,23.084,23.084,0,0,0,2.107-10.136q0-7.485-3.161-10.37a10.6,10.6,0,0,0-7.376-2.885,9.3,9.3,0,0,0-7.3,2.885q-2.594,2.887-2.594,8.031V115.81Z" style="fill:#231f20"/><path d="M1001.171,79.01a17.875,17.875,0,0,0-9.078-2.652q-8.107,0-13.779,8.109V159.16H963.887V63.885h9.888l2.757,7.953q6.321-9.2,16.7-9.2a21.663,21.663,0,0,1,6.322.935,16,16,0,0,1,5.673,3.118Z" style="fill:#231f20"/><path d="M2,65.858s5.128,46.151,96.264,46.151,96.031-46.151,96.031-46.151a79.733,79.733,0,0,0,0-20.511S189.167,0,98.264,0C13.3,0,3.065,39.616,2.091,44.791A73.352,73.352,0,0,0,2,65.858ZM167.2,48.422c3.678,2.083,8.568,2.485,15.25,1.253-3.857,17.539-35.217,32.46-74.581,34.382,1.748-1.441,2.272-2.928,1.24-4.491a8.119,8.119,0,0,0-4.311-2.743,22.6,22.6,0,0,0-13.883.209C86.382,78.76,85.484,81.14,88.281,84,54.543,82.72,18.659,69.52,13.775,49.628a25.336,25.336,0,0,0,8.639.7,15.367,15.367,0,0,0,7.271-2.279c2.894-2,2.486-4.6-.924-6.4-3.718-1.965-8.794-2.339-14.794-1.088,2.54-15.271,30.879-32.115,74.4-34.382-1.512,1.28-2.138,2.606-1.514,3.991,0.638,1.418,2.332,2.553,4.944,3.355a22.542,22.542,0,0,0,13.7-.368c4.4-1.721,5.254-4.075,2.444-6.971,38,1.858,70.153,16.117,74.584,34.446a24.913,24.913,0,0,0-8.631-.722,15.383,15.383,0,0,0-7.288,2.267C163.784,44.109,164.057,46.645,167.2,48.422Z" style="fill:#000016"/><path d="M4.291,89.693s17.269,32.9,93.633,32.9c81.844,0,95.48-35.986,95.48-35.986l-4.194,21.475s-4.43,42.646-91.286,42.646S7.085,107.748,7.085,107.748Z" style="fill:#000016"/><path d="M10.656,132.958s19.82,28.661,87.284,28.661c70.828,0,88.439-27.929,88.439-27.929l-3.534,12.922s-4.029,38.215-84.9,38.215S13.451,146.3,13.451,146.3Z" style="fill:#000016"/><path d="M84.1,39.446a3.881,3.881,0,0,0-1.829.963Q67.156,53.5,52.064,66.6c-0.232.2-.766,0.39-0.422,0.713q29.332-7.223,58.54-14.4a3.917,3.917,0,0,0,1.836-.959q15.057-13.052,30.105-26.106c0.261-.227.517-0.455,1.066-0.938C123.087,29.863,103.6,34.664,84.1,39.446ZM97.265,51.207c-5.862.059-10.933-2.242-11.007-4.993C86.186,43.5,91.2,41.165,97.129,41.158c5.905-.007,10.943,2.324,10.9,5.044S103.161,51.148,97.265,51.207Z" style="fill:#000016"/></svg>