<svg id="65c9a765-ef51-4d2d-9212-d8cd12b0125e" data-name="Layer 1" xmlns="http://www.w3.org/2000/svg" viewBox="0 0 799.333 147.34"><title>MongeExplorerName</title><path d="M16.211-1.422L35.988,95.414,56.9-1.422H71.813v122.1H58.52V41.928L42.958,120.675H29.179L13.293,40.836v79.839H0V-1.422H16.211Z" style="fill:#231f20"/><path d="M135.194,98.844a22.808,22.808,0,0,1-1.945,9.668,22.526,22.526,0,0,1-5.268,7.251,22.154,22.154,0,0,1-7.862,4.6,30.354,30.354,0,0,1-19.21,0,22.219,22.219,0,0,1-7.781-4.6,22.477,22.477,0,0,1-5.269-7.251,22.808,22.808,0,0,1-1.945-9.668V47.231a22.963,22.963,0,0,1,1.945-9.59,21.992,21.992,0,0,1,13.05-11.929,30.354,30.354,0,0,1,19.21,0,21.835,21.835,0,0,1,13.13,11.929,22.963,22.963,0,0,1,1.945,9.59V98.844Zm-35.339-.78q0,4.994,3,7.563a11.406,11.406,0,0,0,7.7,2.573,11.1,11.1,0,0,0,7.618-2.573q2.919-2.573,2.918-7.563V48.009q0-4.988-2.918-7.562a11.091,11.091,0,0,0-7.618-2.574,11.4,11.4,0,0,0-7.7,2.574q-3,2.573-3,7.562V98.065Z" style="fill:#231f20"/><path d="M159.185,25.4l2.27,5.458a26.351,26.351,0,0,1,8.429-4.99,27.284,27.284,0,0,1,9.4-1.715,23.034,23.034,0,0,1,8.023,1.4,17.892,17.892,0,0,1,6.646,4.288,20.26,20.26,0,0,1,4.459,7.252,29.093,29.093,0,0,1,1.621,10.136v73.445H185.609V50.193q0-5.925-2.433-9.123t-7.942-3.2q-6,0-11.51,4.99v77.812H149.3V25.4h9.888Z" style="fill:#231f20"/><path d="M213.977,47.231a22.963,22.963,0,0,1,1.945-9.59A21.986,21.986,0,0,1,228.97,25.712a29.028,29.028,0,0,1,9.646-1.56,25.8,25.8,0,0,1,13.131,3.275l17.993-.937-8.1,12.008a24.982,24.982,0,0,1,1.621,8.733V72.492a22.825,22.825,0,0,1-1.945,9.668,22.555,22.555,0,0,1-5.269,7.251,22.144,22.144,0,0,1-7.862,4.6,29.22,29.22,0,0,1-9.564,1.559,31.969,31.969,0,0,1-5.673-.468,9.331,9.331,0,0,0-3.891,7.485A6.155,6.155,0,0,0,231,107.343q1.944,1.8,6.321,1.794h28.369l-5.673,11.851H232.294q-5.349,0-7.618,2.105a6.827,6.827,0,0,0-2.27,5.223,7.237,7.237,0,0,0,2.026,5.225q2.025,2.1,6.08,2.105h22.695l-5.673,11.694H227.755A23.666,23.666,0,0,1,219,145.859a17.74,17.74,0,0,1-6.24-4.055,17.311,17.311,0,0,1-3.81-5.925,19.03,19.03,0,0,1-1.3-6.939,18.67,18.67,0,0,1,2.918-10.215,17.76,17.76,0,0,1,9.078-6.939,12.887,12.887,0,0,1-2.27-7.8,12.123,12.123,0,0,1,1.946-6.939,18.848,18.848,0,0,1,5.187-5.068,20.525,20.525,0,0,1-7.7-7.8,23.249,23.249,0,0,1-2.837-11.694V47.231Zm13.617,25.1q0,5.146,3.079,7.8a13.106,13.106,0,0,0,15.805,0q3.161-2.651,3.162-7.8V47.386q0-5.3-3.162-7.875a13.423,13.423,0,0,0-15.805,0q-3.08,2.573-3.079,7.875V72.335Z" style="fill:#231f20"/><path d="M326.64,98.844a22.808,22.808,0,0,1-1.945,9.668,22.526,22.526,0,0,1-5.268,7.251,22.154,22.154,0,0,1-7.862,4.6,30.354,30.354,0,0,1-19.21,0,22.219,22.219,0,0,1-7.781-4.6,22.477,22.477,0,0,1-5.269-7.251,22.808,22.808,0,0,1-1.945-9.668V47.231a22.963,22.963,0,0,1,1.945-9.59,21.992,21.992,0,0,1,13.05-11.929,30.354,30.354,0,0,1,19.21,0A21.835,21.835,0,0,1,324.7,37.64a22.963,22.963,0,0,1,1.945,9.59V98.844Zm-35.339-.78q0,4.994,3,7.563A11.406,11.406,0,0,0,302,108.2a11.1,11.1,0,0,0,7.618-2.573q2.919-2.573,2.918-7.563V48.009q0-4.988-2.918-7.562A11.091,11.091,0,0,0,302,37.874a11.4,11.4,0,0,0-7.7,2.574q-3,2.573-3,7.562V98.065Z" style="fill:#231f20"/><path d="M412.877-1.422V12.457H385.8v38.36h19.129V64.695H385.8v42.1h27.072v13.878H370.891V-1.422h41.986Z" style="fill:#231f20"/><path d="M481.124,25.4L458.915,71.088l24.154,49.588H467.021L450.324,85.9l-16.211,34.774H419.686l23.181-50.523L421.469,25.4h15.4L451.3,55.494,466.211,25.4h14.914Z" style="fill:#231f20"/><path d="M502.521,25.4l2.431,5.925a27.522,27.522,0,0,1,8.349-5.3,25.452,25.452,0,0,1,9.646-1.871,21.922,21.922,0,0,1,7.781,1.4,17.293,17.293,0,0,1,6.485,4.288,21.876,21.876,0,0,1,4.458,7.252,27.809,27.809,0,0,1,1.7,10.136V98.844a27.644,27.644,0,0,1-1.7,10.213,21.954,21.954,0,0,1-4.458,7.173,17.282,17.282,0,0,1-6.485,4.289,21.922,21.922,0,0,1-7.781,1.4,25.064,25.064,0,0,1-15.887-5.458V147.34H492.632V25.4h9.888Zm16.373,12.474q-6.487,0-11.834,5.458v59.411q5.351,5.46,11.834,5.458,5.186,0,7.618-3.2t2.433-9.123V50.193q0-5.925-2.433-9.123T518.894,37.874Z" style="fill:#231f20"/><path d="M571.9-6.412V120.675H557.474V-2.981Z" style="fill:#231f20"/><path d="M635.285,98.844a22.808,22.808,0,0,1-1.945,9.668,22.526,22.526,0,0,1-5.268,7.251,22.154,22.154,0,0,1-7.862,4.6,30.354,30.354,0,0,1-19.21,0,22.219,22.219,0,0,1-7.781-4.6,22.477,22.477,0,0,1-5.269-7.251A22.808,22.808,0,0,1,586,98.844V47.231a22.963,22.963,0,0,1,1.945-9.59A21.992,21.992,0,0,1,601,25.712a30.354,30.354,0,0,1,19.21,0A21.835,21.835,0,0,1,633.34,37.64a22.963,22.963,0,0,1,1.945,9.59V98.844Zm-35.339-.78q0,4.994,3,7.563a11.406,11.406,0,0,0,7.7,2.573,11.1,11.1,0,0,0,7.618-2.573q2.919-2.573,2.918-7.563V48.009q0-4.988-2.918-7.562a11.091,11.091,0,0,0-7.618-2.574,11.4,11.4,0,0,0-7.7,2.574q-3,2.573-3,7.562V98.065Z" style="fill:#231f20"/><path d="M686.67,40.525a17.875,17.875,0,0,0-9.078-2.652q-8.107,0-13.779,8.109v74.692H649.386V25.4h9.888l2.757,7.953q6.321-9.2,16.7-9.2a21.663,21.663,0,0,1,6.322.935,16,16,0,0,1,5.673,3.118Z" style="fill:#231f20"/><path d="M728.818,77.95q-3.405,2.806-8.025,6t-10.456,6.783v7.641q0,4.992,2.918,7.563a10.86,10.86,0,0,0,7.457,2.573,11.1,11.1,0,0,0,7.619-2.573q2.917-2.573,2.918-7.563V92.3l13.13-3.275v9.824a23.7,23.7,0,0,1-1.864,9.668,21.533,21.533,0,0,1-5.188,7.251,22.394,22.394,0,0,1-7.7,4.6,27.863,27.863,0,0,1-9.4,1.56,27.154,27.154,0,0,1-9.322-1.56,21.681,21.681,0,0,1-7.538-4.6,22.019,22.019,0,0,1-5.107-7.251,23.664,23.664,0,0,1-1.864-9.668V47.231a23.825,23.825,0,0,1,1.864-9.59,21.843,21.843,0,0,1,5.107-7.33,21.6,21.6,0,0,1,7.619-4.6,27.824,27.824,0,0,1,9.4-1.56,31.849,31.849,0,0,1,8.754,1.248,20.118,20.118,0,0,1,7.781,4.21,22.537,22.537,0,0,1,5.593,7.718,28.566,28.566,0,0,1,2.189,11.929,30.61,30.61,0,0,1-3.81,15.516Q737.084,71.4,728.818,77.95Zm-18.481-.624a75.678,75.678,0,0,0,11.185-8.108,29.894,29.894,0,0,0,7.133-8.888,23.084,23.084,0,0,0,2.107-10.136q0-7.485-3.161-10.37a10.6,10.6,0,0,0-7.376-2.885,9.3,9.3,0,0,0-7.3,2.885q-2.594,2.887-2.594,8.031V77.325Z" style="fill:#231f20"/><path d="M795.281,40.525a17.875,17.875,0,0,0-9.078-2.652q-8.107,0-13.779,8.109v74.692H758V25.4h9.888l2.757,7.953q6.321-9.2,16.7-9.2a21.663,21.663,0,0,1,6.322.935,16,16,0,0,1,5.673,3.118Z" style="fill:#231f20"/></svg>