<svg id="c2da2569-bfdf-4b1d-94d7-12f10b929d80" data-name="Layer 1" xmlns="http://www.w3.org/2000/svg" viewBox="0 0 142.5 141.16"><title>MongeExplorerLogo</title><path d="M2.5,49.591s3.667,33,68.833,33,68.667-33,68.667-33a57.013,57.013,0,0,0,0-14.667S136.334,2.5,71.334,2.5C10.579,2.5,3.262,30.828,2.565,34.528A52.45,52.45,0,0,0,2.5,49.591ZM120.623,37.124c2.63,1.489,6.127,1.777,10.9.9C128.77,50.562,106.346,61.231,78.2,62.6c1.25-1.03,1.625-2.093.886-3.211A5.806,5.806,0,0,0,76,57.432a16.157,16.157,0,0,0-9.927.149c-3.238,1.236-3.88,2.938-1.88,4.981C40.071,61.649,14.412,52.21,10.919,37.987a18.116,18.116,0,0,0,6.177.5,10.988,10.988,0,0,0,5.2-1.63c2.069-1.433,1.778-3.288-.661-4.577-2.658-1.405-6.288-1.672-10.578-.778,1.816-10.92,22.08-22.964,53.2-24.585-1.081.915-1.528,1.863-1.083,2.854,0.456,1.014,1.668,1.826,3.535,2.4a16.118,16.118,0,0,0,9.793-.263c3.143-1.231,3.757-2.914,1.747-4.984,27.171,1.329,50.163,11.524,53.331,24.631a17.814,17.814,0,0,0-6.172-.516,11,11,0,0,0-5.211,1.621C118.183,34.04,118.378,35.853,120.623,37.124Z" style="fill:crimson"/><path d="M4.138,66.635S16.487,90.161,71.09,90.161c58.522,0,68.273-25.732,68.273-25.732l-3,15.356S133.2,110.279,71.09,110.279,6.136,79.545,6.136,79.545Z" style="fill:crimson"/><path d="M8.69,97.571S22.862,118.065,71.1,118.065c50.646,0,63.238-19.97,63.238-19.97l-2.527,9.24S128.932,134.66,71.1,134.66s-60.414-27.549-60.414-27.549Z" style="fill:crimson"/><path d="M61.205,30.706a2.775,2.775,0,0,0-1.308.688Q49.09,40.758,38.3,50.125c-0.166.144-.548,0.279-0.3,0.51q20.974-5.165,41.859-10.3a2.8,2.8,0,0,0,1.313-.686q10.766-9.333,21.527-18.667c0.187-.162.37-0.325,0.762-0.671C89.083,23.853,75.152,27.287,61.205,30.706Zm9.414,8.41c-4.192.042-7.817-1.6-7.87-3.57-0.052-1.941,3.536-3.61,7.773-3.615s7.825,1.662,7.792,3.607S74.835,39.073,70.619,39.116Z" style="fill:crimson"/></svg>